<svg xmlns="http://www.w3.org/2000/svg" width="1200" height="630" viewBox="0 0 1200 630">
  <defs>
    <linearGradient id="g" x1="0" y1="0" x2="1" y2="1">
      <stop offset="0" stop-color="#1e2f45"/>
      <stop offset="0.7" stop-color="#2b3f4d"/>
      <stop offset="1" stop-color="#3e5766"/>
    </linearGradient>
    <pattern id="p" width="240" height="120" patternUnits="userSpaceOnUse">
      <path d="M0 90 Q20 78 40 84 T80 82 T120 78 T160 84 T200 80 T240 84 L240 120 L0 120 Z" fill="#b58a44" opacity="0.08"/>
    </pattern>
  </defs>
  <rect width="1200" height="630" fill="url(#g)"/>
  <rect width="1200" height="630" fill="url(#p)"/>
  <g transform="translate(80,160)">
    <text font-family="'Libre Caslon Text', Georgia, serif" font-size="64" font-weight="700" fill="#f6f2ea">
      <tspan x="0" y="0">Broadstairs</tspan>
      <tspan x="410" y="0" fill="#b58a44" font-style="italic" font-weight="400"> &amp; </tspan>
      <tspan x="490" y="0">Hedges</tspan>
    </text>
    <text font-family="'Source Sans 3', sans-serif" font-size="20" fill="#b58a44" letter-spacing="4" x="2" y="50">BAYS · CLIFFS · ST PETER&apos;S</text>
    <text font-family="'Libre Caslon Text', Georgia, serif" font-size="66" font-weight="400" fill="#f6f2ea" font-style="italic" x="0" y="200">
      <tspan x="0" y="200">Considered work</tspan>
      <tspan x="0" y="272">above Viking Bay.</tspan>
    </text>
    <text font-family="'Source Sans 3', sans-serif" font-size="22" fill="rgba(246,242,234,0.85)" x="0" y="370">
      <tspan x="0" y="370">Coast-aware hedge cutting, reduction, removal and planting</tspan>
      <tspan x="0" y="402">across Broadstairs, St Peter&apos;s and the Thanet clifftop bays.</tspan>
    </text>
  </g>
  <g transform="translate(80,560)">
    <rect width="240" height="44" rx="22" fill="#b58a44"/>
    <text font-family="'Source Sans 3', sans-serif" font-size="16" font-weight="600" fill="#1e2f45" x="34" y="28">broadstairshedges.co.uk</text>
  </g>
</svg>
